<svg width="767" height="160" viewBox="0 0 767 160" fill="none" xmlns="http://www.w3.org/2000/svg">
<path fill-rule="evenodd" clip-rule="evenodd" d="M74.4316 6.8378C74.4352 6.8378 74.4352 6.84142 74.4388 6.84142C74.9642 7.0726 76.3228 7.311 77.0799 7.43021C77.0908 7.43021 77.1017 7.43741 77.1161 7.44102C90.2382 9.28686 100.393 21.7743 100.393 36.913C100.393 37.8955 100.35 42.8406 100.266 49.1873V97.2368C100.266 113.676 113.638 127.005 130.133 127.005C146.548 127.005 159.87 113.81 159.996 97.4788C159.996 97.4788 160 97.2765 160 97.2368L160 30.6133H159.996C159.761 14.1164 146.624 0.700676 130.195 -8.39233e-05H76.0075C74.0113 -8.39233e-05 72.3955 1.61095 72.3955 3.60127C72.3919 5.02809 73.2252 6.25623 74.4316 6.8378Z" fill="white"/>
<path fill-rule="evenodd" clip-rule="evenodd" d="M85.5684 153.162C85.5648 153.162 85.5648 153.158 85.5612 153.158C85.0358 152.927 83.6772 152.689 82.9201 152.57C82.9092 152.57 82.8983 152.562 82.8839 152.559C69.7618 150.713 59.607 138.226 59.607 123.087C59.607 122.104 59.6504 117.159 59.7338 110.813V62.763C59.7338 46.3239 46.3618 32.9949 29.8669 32.9949C13.4517 32.9949 0.130404 46.1902 0.00360429 62.521C0.00360429 62.521 1.91336e-09 62.7233 1.91336e-09 62.763L3.81825e-10 129.386H0.00360429C0.23909 145.883 13.3756 159.299 29.8053 160H83.9925C85.9887 160 87.6045 158.389 87.6045 156.399C87.6081 154.972 86.7748 153.744 85.5684 153.162Z" fill="white"/>
<path d="M379.086 127.583C369.384 127.583 360.652 125.585 352.891 121.59C345.243 117.481 339.251 111.831 334.914 104.641C330.576 97.4499 328.408 89.289 328.408 80.1578C328.408 71.0267 330.576 62.8657 334.914 55.6749C339.251 48.4841 345.243 42.8913 352.891 38.8964C360.652 34.7874 369.384 32.7329 379.086 32.7329C388.787 32.7329 397.462 34.7874 405.109 38.8964C412.757 42.8913 418.749 48.4841 423.086 55.6749C427.424 62.8657 429.592 71.0267 429.592 80.1578C429.592 89.289 427.424 97.4499 423.086 104.641C418.749 111.831 412.757 117.481 405.109 121.59C397.462 125.585 388.787 127.583 379.086 127.583ZM379.086 105.668C385.934 105.668 391.527 103.385 395.864 98.8196C400.315 94.1399 402.541 87.9193 402.541 80.1578C402.541 72.3963 400.315 66.2328 395.864 61.6672C391.527 56.9875 385.934 54.6476 379.086 54.6476C372.237 54.6476 366.587 56.9875 362.136 61.6672C357.684 66.2328 355.459 72.3963 355.459 80.1578C355.459 87.9193 357.684 94.1399 362.136 98.8196C366.587 103.385 372.237 105.668 379.086 105.668Z" fill="white"/>
<path d="M493.473 127.583C483.771 127.583 475.039 125.585 467.278 121.59C459.63 117.481 453.638 111.831 449.301 104.641C444.963 97.4499 442.795 89.289 442.795 80.1578C442.795 71.0267 444.963 62.8657 449.301 55.6749C453.638 48.4841 459.63 42.8913 467.278 38.8964C475.039 34.7874 483.771 32.7329 493.473 32.7329C503.174 32.7329 511.849 34.7874 519.496 38.8964C527.144 42.8913 533.136 48.4841 537.473 55.6749C541.811 62.8657 543.979 71.0267 543.979 80.1578C543.979 89.289 541.811 97.4499 537.473 104.641C533.136 111.831 527.144 117.481 519.496 121.59C511.849 125.585 503.174 127.583 493.473 127.583ZM493.473 105.668C500.321 105.668 505.914 103.385 510.251 98.8196C514.703 94.1399 516.928 87.9193 516.928 80.1578C516.928 72.3963 514.703 66.2328 510.251 61.6672C505.914 56.9875 500.321 54.6476 493.473 54.6476C486.624 54.6476 480.974 56.9875 476.523 61.6672C472.071 66.2328 469.846 72.3963 469.846 80.1578C469.846 87.9193 472.071 94.1399 476.523 98.8196C480.974 103.385 486.624 105.668 493.473 105.668Z" fill="white"/>
<rect x="219.99" y="96.3155" width="26.7093" height="29.8274" rx="6.27948" fill="white"/>
<path d="M287.445 102.595C287.445 99.1271 290.257 96.3156 293.725 96.3156H307.899C311.367 96.3156 314.179 99.1271 314.179 102.595V119.864C314.179 123.332 311.367 126.143 307.899 126.143H306.284C295.879 126.143 287.445 117.709 287.445 107.305V102.595Z" fill="white"/>
<path fill-rule="evenodd" clip-rule="evenodd" d="M219.993 40.7286V105.806H246.702V80.6724C246.702 72.4544 248.699 66.2909 252.694 62.1818C256.689 57.9587 262.054 55.8471 268.788 55.8471C274.837 55.8471 279.46 57.6733 282.656 61.3258C285.852 64.8641 287.45 70.2857 287.45 77.5907V105.806H314.158V73.4816C314.158 60.0132 310.62 49.8548 303.543 43.0064C296.581 36.158 287.393 32.7339 275.979 32.7339C269.701 32.7339 263.937 33.8182 258.686 35.9868C253.436 38.0413 249.042 41.009 245.503 44.8897V40.7286H219.993Z" fill="white"/>
<rect x="219.99" y="34.1139" width="25.5103" height="34.7332" rx="6.27948" fill="white"/>
<rect x="557.418" y="96.3157" width="26.7087" height="29.8274" rx="6.27948" fill="white"/>
<path d="M624.879 102.595C624.879 99.1271 627.69 96.3157 631.158 96.3157H645.326C648.794 96.3157 651.605 99.1271 651.605 102.595V119.864C651.605 123.332 648.794 126.143 645.326 126.143H643.717C633.313 126.143 624.879 117.709 624.879 107.305V102.595Z" fill="white"/>
<path fill-rule="evenodd" clip-rule="evenodd" d="M557.42 40.7289V105.806H584.129V80.6724C584.129 72.4544 586.126 66.2909 590.121 62.1818C594.116 57.9587 599.481 55.8471 606.215 55.8471C612.264 55.8471 616.887 57.6733 620.083 61.3258C623.279 64.8641 624.877 70.2857 624.877 77.5907V105.806H651.585V73.4816C651.585 60.0132 648.047 49.8548 640.97 43.0064C634.008 36.158 624.82 32.7339 613.406 32.7339C607.128 32.7339 601.364 33.8182 596.114 35.9868C590.863 38.0413 586.469 41.009 582.93 44.8897V40.7289H557.42Z" fill="white"/>
<rect x="557.418" y="34.1138" width="25.5103" height="34.7332" rx="6.27948" fill="white"/>
<rect x="741.348" y="95.6331" width="25.5068" height="29.8274" rx="6.27948" fill="white"/>
<path fill-rule="evenodd" clip-rule="evenodd" d="M740.163 41.6643L740.166 43.0879C733.546 35.6688 724.34 31.9488 712.583 31.9488C703.909 31.9488 696.033 33.8891 688.957 37.7699C681.994 41.6506 676.515 47.1864 672.521 54.3772C668.526 61.5679 666.528 69.9001 666.528 79.3737C666.528 88.8473 668.526 97.1794 672.521 104.37C676.515 111.561 681.994 117.097 688.957 120.978C696.033 124.858 703.909 126.799 712.583 126.799C725.139 126.799 734.727 122.804 741.347 114.814V119.076H766.857V41.6643H740.163ZM717.206 104.884C723.94 104.884 729.533 102.601 733.985 98.0355C738.436 93.3558 740.662 87.1352 740.662 79.3737C740.662 71.6122 738.436 65.4487 733.985 60.8831C729.533 56.2034 723.94 53.8635 717.206 53.8635C710.358 53.8635 704.708 56.2034 700.256 60.8831C695.805 65.4487 693.579 71.6122 693.579 79.3737C693.579 87.1352 695.805 93.3558 700.256 98.0355C704.708 102.601 710.358 104.884 717.206 104.884Z" fill="white"/>
<rect x="740.161" y="34.1129" width="26.6922" height="34.7332" rx="6.27948" fill="white"/>
</svg>
